<svg width="27" height="25" viewBox="0 0 27 25" fill="none" xmlns="http://www.w3.org/2000/svg">
<g id="&#240;&#159;&#166;&#134; icon &#34;canva&#34;">
<path id="Vector" d="M13.5 0C6.04209 0 0 5.59453 0 12.5C0 19.4055 6.04209 25 13.5 25C20.9579 25 27 19.4055 27 12.5C27 5.59453 20.9579 0 13.5 0ZM7.83084 8C8.67881 8 9.33863 8.57266 9.41288 9.24922C9.49303 9.85937 9.21966 10.393 8.49066 10.7141C8.10337 10.893 7.94981 10.893 7.8705 10.7867C7.83084 10.7141 7.8705 10.6453 7.94897 10.5711C8.64422 10.0391 8.64422 9.60781 8.56406 9.00156C8.52441 8.60703 8.21728 8.35781 7.90931 8.35781C6.55594 8.35781 4.63134 11.1414 4.89881 13.1797C5.01778 13.9648 5.51897 14.893 6.59559 14.893C6.94322 14.893 7.3305 14.7867 7.67644 14.6453C8.23922 14.368 8.57756 14.157 8.91169 13.8109C8.82816 12.8867 9.70228 11.6789 10.9941 11.6789C11.5746 11.6789 12.0361 11.8945 12.0749 12.2891C12.15 12.8227 11.6488 12.8953 11.4952 12.8953C11.3408 12.8953 11.0692 12.8586 11.0692 12.7164C11.0346 12.5734 11.4159 12.6438 11.3805 12.3219C11.3408 12.1063 11.108 12.0375 10.8802 12.0375C10.0668 12.0375 9.60525 13.075 9.72 13.7133C9.75966 14.0016 9.91238 14.2875 10.2254 14.2875C10.4541 14.2875 10.8017 13.9656 10.9147 13.5023C10.9932 13.1805 11.302 12.9648 11.5737 12.9648C11.6885 12.9648 11.7627 13.0016 11.8024 13.1437V13.2867C11.7678 13.4297 11.648 13.8609 11.6885 13.9656C11.6885 14.0398 11.7281 14.1445 11.8808 14.1445C11.9821 14.1445 12.3694 13.957 12.7558 13.6641C12.8832 13.0492 13.0368 12.3133 13.0368 12.2523C13.0764 12 13.1912 11.7516 13.7312 11.7516C13.8493 11.7516 13.9244 11.7883 13.9641 11.9305V12.0734L13.8097 12.7164C14.3117 12.1102 15.0449 11.6828 15.5064 11.6828C15.6997 11.6828 15.8541 11.7883 15.8541 11.9672C15.8541 12.0734 15.8541 12.2523 15.7739 12.432C15.6212 12.8227 15.4271 13.4328 15.3124 13.9656C15.3124 14.1086 15.352 14.2508 15.5452 14.2508C15.7385 14.2508 16.3147 14.0391 16.7763 13.4656L16.7856 13.4617C16.7856 13.3922 16.7763 13.3234 16.7763 13.2547C16.7763 12.8234 16.8159 12.4695 16.8953 12.2172C16.9737 11.932 17.3568 11.6836 17.5897 11.6836C17.7036 11.6836 17.8225 11.7523 17.8225 11.8586C17.8225 11.8953 17.8225 11.968 17.7829 12.0016C17.6285 12.4695 17.5095 12.8961 17.5095 13.3234C17.5095 13.5758 17.55 13.9297 17.6285 14.1453C17.6285 14.182 17.6631 14.218 17.7027 14.218C17.7829 14.218 18.3229 13.7547 18.7051 13.1437C18.3575 12.932 18.1642 12.5742 18.1642 12.1469C18.1642 11.3945 18.6705 11.0031 19.132 11.0031C19.5193 11.0031 19.8264 11.2523 19.8264 11.7523C19.8264 12.0742 19.7117 12.4328 19.5193 12.7531H19.6332C19.8796 12.7617 20.1218 12.668 20.288 12.5055C20.3276 12.4484 20.3799 12.4078 20.4424 12.3836C20.8204 11.9398 21.3739 11.6109 22.0286 11.6109C22.5686 11.6109 23.0656 11.8266 23.1053 12.2172C23.1837 12.7539 22.6792 12.8602 22.5247 12.8602C22.372 12.8602 22.0995 12.8234 22.0995 12.6813C22.0995 12.5391 22.4463 12.6086 22.4108 12.2906C22.3712 12.075 22.1383 12.0023 21.9054 12.0023C21.1359 12.0023 20.6356 12.9297 20.7487 13.6828C20.7883 13.9672 20.9419 14.2891 21.2507 14.2891C21.4836 14.2891 21.8303 13.9672 21.9839 13.5039C22.0582 13.2195 22.3712 12.9664 22.6387 12.9664C22.7568 12.9664 22.8319 13.0031 22.8715 13.1453C22.8715 13.2195 22.8715 13.3609 22.7171 13.8258C22.5239 14.1469 22.5239 14.3258 22.5644 14.4688C22.599 14.7531 22.7534 14.9687 22.9112 15.075C22.9458 15.1117 22.9863 15.1805 22.9863 15.1805C22.9863 15.2547 22.9458 15.3273 22.8319 15.3273C22.7922 15.3273 22.7568 15.3273 22.7171 15.2906C22.1375 15.075 21.9046 14.7164 21.8295 14.3586C21.5966 14.6109 21.3292 14.7531 21.017 14.7531C20.5149 14.7531 20.0188 14.3258 19.9403 13.7883C19.9176 13.5609 19.9437 13.3289 20.0239 13.1133C19.7952 13.2477 19.5488 13.325 19.321 13.325H19.132C18.6266 14.0039 18.0858 14.4688 17.7036 14.6805C17.5719 14.7453 17.4268 14.7828 17.2775 14.7898C17.2032 14.7898 17.0851 14.7531 17.0488 14.6805C16.94 14.5219 16.8733 14.2734 16.8294 13.9891C16.2886 14.5336 15.541 14.8266 15.1951 14.8266C14.8078 14.8266 14.58 14.6109 14.5403 14.2539V13.8633C14.6542 13.0781 14.9664 12.6102 14.9664 12.4672C14.9622 12.4305 14.9302 12.3977 14.8863 12.3945C14.6188 12.3945 13.7312 13.2531 13.5768 13.8266L13.4587 14.2898C13.3836 14.6109 13.0368 14.8266 12.8039 14.8266C12.6892 14.8266 12.6107 14.7898 12.5753 14.6484V14.5055L12.6233 14.2617C12.1348 14.5828 11.6471 14.7898 11.4142 14.7898C11.0675 14.7898 10.8743 14.6109 10.8397 14.3586C10.6068 14.6484 10.3376 14.7898 9.99169 14.7898C9.59091 14.7898 9.20531 14.5375 9.02053 14.1719C8.74294 14.4602 8.43075 14.7492 8.06203 14.9687C7.52203 15.2906 6.90694 15.5383 6.17203 15.5383C5.51728 15.5383 4.93762 15.2164 4.62966 14.932C4.16391 14.5375 3.89644 13.9312 3.85678 13.3609C3.62813 11.6117 4.78406 9.36094 6.55425 8.36016C6.98034 8.14453 7.40728 8.00313 7.82916 8.00313L7.83084 8ZM18.8215 11.4305C18.7076 11.4305 18.6292 11.6094 18.6292 11.7836C18.6292 12.0734 18.7819 12.3937 18.9759 12.5734C19.0561 12.3789 19.0907 12.1711 19.0949 11.9633C19.0949 11.6102 18.9405 11.4312 18.8215 11.4312V11.4305Z" fill="#28B8C8"/>
</g>
</svg>
