<svg width="17" height="26" viewBox="0 0 17 26" fill="none" xmlns="http://www.w3.org/2000/svg">
<g id="&#240;&#159;&#166;&#134; icon &#34;figma&#34;">
<g id="Group">
<path id="Vector" d="M12.75 17.3333C15.0972 17.3333 17 15.3932 17 13C17 10.6067 15.0972 8.66663 12.75 8.66663C10.4028 8.66663 8.5 10.6067 8.5 13C8.5 15.3932 10.4028 17.3333 12.75 17.3333Z" fill="#19BCFE"/>
<path id="Vector_2" fill-rule="evenodd" clip-rule="evenodd" d="M4.25 25.9999C6.59721 25.9999 8.5 24.0598 8.5 21.6666C8.5 21.0133 8.5 19.5688 8.5 17.3333C6.59073 17.3333 5.17406 17.3333 4.25 17.3333C1.90279 17.3333 0 19.2734 0 21.6666C0 24.0598 1.90279 25.9999 4.25 25.9999Z" fill="#09CF83"/>
<path id="Vector_3" fill-rule="evenodd" clip-rule="evenodd" d="M4.25 17.3333H8.5V8.66663C6.44907 8.66663 5.0324 8.66663 4.25 8.66663C1.90279 8.66663 0 10.6067 0 13C0 15.3932 1.90279 17.3333 4.25 17.3333Z" fill="#A259FF"/>
<path id="Vector_4" fill-rule="evenodd" clip-rule="evenodd" d="M4.25 8.66667H8.5V0C6.44907 0 5.0324 0 4.25 0C1.90279 0 0 1.9401 0 4.33333C0 6.72657 1.90279 8.66667 4.25 8.66667Z" fill="#F24E1E"/>
<path id="Vector_5" fill-rule="evenodd" clip-rule="evenodd" d="M12.75 8.66667H8.5V0H12.75C15.0972 0 17 1.9401 17 4.33333C17 6.72657 15.0972 8.66667 12.75 8.66667Z" fill="#FF7262"/>
</g>
</g>
</svg>
